<?xml version="1.0" ?><!DOCTYPE svg  PUBLIC '-//W3C//DTD SVG 1.0//EN'  'http://www.w3.org/TR/2001/REC-SVG-20010904/DTD/svg10.dtd'><svg enable-background="new 0 0 512 512" id="Layer_1" version="1.0" viewBox="0 0 512 512" xml:space="preserve" xmlns="http://www.w3.org/2000/svg" xmlns:xlink="http://www.w3.org/1999/xlink"><g><g><g><path d="M256,131.3c9.7,0,9.7-15,0-15C246.3,116.3,246.3,131.3,256,131.3L256,131.3z"/></g></g><g><path d="M272,139.9v72.4c-5.2-0.9-10.6-1.4-16-1.4s-10.8,0.5-16.1,1.4v-72.4c0-8.9,7.2-16.1,16.1-16.1    C264.9,123.8,272,131,272,139.9z" fill="#998675"/><g><path d="M264.5,139.9c0,24.1,0,48.2,0,72.4c3.2-2.4,6.3-4.8,9.5-7.2c-12.1-2.1-24-2.1-36.1,0c3.2,2.4,6.3,4.8,9.5,7.2     c0-16.1,0-32.3,0-48.4c0-7.6,0-15.2,0-22.8c0-3.8,1.3-6.7,4.6-8.7C257.8,128.8,264.3,134,264.5,139.9c0.4,9.6,15.4,9.7,15,0     c-0.4-9.8-5.8-18.2-15-21.9c-9.3-3.7-20.1-0.9-26.5,6.7c-6.8,8-5.6,18.2-5.6,27.8c0,19.9,0,39.8,0,59.7c0,5.2,4.8,8,9.5,7.2     c9.3-1.6,18.8-1.6,28.1,0c4.7,0.8,9.5-2,9.5-7.2c0-24.1,0-48.2,0-72.4C279.5,130.2,264.5,130.2,264.5,139.9z"/></g></g><g><path d="M167.3,299.5c0,6.1,0.6,12,1.8,17.7H97.3c-0.3,0-0.6,0-0.9,0s-0.6,0-0.9,0H60.9    c-19.6,0-35.5-15.9-35.5-35.5c0-19.6,15.9-35.5,35.5-35.5h124.1C173.9,261.1,167.3,279.5,167.3,299.5z" fill="#998675"/><g><path d="M159.8,299.5c0.1,6.6,0.8,13.2,2,19.7c2.4-3.2,4.8-6.3,7.2-9.5c-23.6,0-47.1,0-70.7,0c-10.9,0-21.9,0-32.8,0     c-7.2,0-13.6-0.6-19.9-4.5c-9.1-5.5-13.2-16-12.6-26.2c0.6-10.4,8.1-18.9,17.2-23.2c4.1-1.9,8.7-2,13.2-2c11,0,21.9,0,32.9,0     c28.1,0,56.2,0,84.3,0c1.4,0,2.9,0,4.3,0c-2.2-3.8-4.3-7.5-6.5-11.3C166.4,259,160,279,159.8,299.5c-0.1,9.7,14.9,9.7,15,0     c0.2-18.1,6-34.9,16.7-49.4c3.5-4.7-1.3-11.3-6.5-11.3c-22.8,0-45.7,0-68.5,0c-14.3,0-28.6,0-42.9,0c-10.8,0-20.6-0.3-30.9,4.1     c-22.9,9.7-30.4,38.4-19.5,59.4c5.3,10.3,15.4,17.7,26.3,20.9c6.5,1.9,13.4,1.5,20.1,1.5c24.2,0,48.3,0,72.5,0c9,0,18,0,27,0     c5.2,0,8.1-4.8,7.2-9.5c-1-5.2-1.4-10.4-1.5-15.7C174.7,289.8,159.7,289.8,159.8,299.5z"/></g></g><g><path d="M486.5,281.8c0,19.6-15.9,35.5-35.5,35.5h-34.5c-0.3,0-0.6,0-0.9,0s-0.6,0-0.9,0h-71.8    c1.2-5.7,1.8-11.7,1.8-17.7c0-20-6.6-38.4-17.7-53.2h124.1C470.7,246.3,486.5,262.2,486.5,281.8z" fill="#998675"/><g><path d="M479,281.8c-0.2,10.1-5.2,18.9-13.8,24.2c-6.1,3.7-12.7,3.8-19.5,3.8c-10.8,0-21.6,0-32.4,0c-23.5,0-46.9,0-70.4,0     c2.4,3.2,4.8,6.3,7.2,9.5c5.2-26.8-0.4-54.6-16.7-76.7c-2.2,3.8-4.3,7.5-6.5,11.3c22.8,0,45.7,0,68.5,0c14.3,0,28.6,0,42.9,0     c9.8,0,19.1-0.8,27.9,4.5C474.4,263.2,478.9,272.5,479,281.8c0.2,9.7,15.2,9.7,15,0c-0.5-23.4-19.3-43-43-43     c-7.8,0-15.6,0-23.4,0c-29.7,0-59.5,0-89.2,0c-3.8,0-7.6,0-11.4,0c-5.2,0-10,6.6-6.5,11.3c13.9,18.8,19.7,42.1,15.2,65.2     c-0.9,4.7,2.1,9.5,7.2,9.5c23.6,0,47.1,0,70.7,0c10.9,0,21.9,0,32.8,0c8,0,15.4-0.9,22.9-4.1c10.7-4.5,18.4-14.3,22.4-24.9     c1.7-4.4,2.2-9.3,2.3-14C494.2,272.1,479.2,272.1,479,281.8z"/></g></g><g><path d="M326.9,246.3c-13.1-17.5-32.5-29.9-54.9-34c-5.2-0.9-10.6-1.4-16-1.4s-10.8,0.5-16.1,1.4    c-22.3,4.1-41.8,16.6-54.9,34c-11.1,14.8-17.7,33.2-17.7,53.2c0,6.1,0.6,12,1.8,17.7c8.2,40.5,44,70.9,86.9,70.9    s78.7-30.5,86.9-70.9c1.2-5.7,1.8-11.7,1.8-17.7C344.7,279.5,338.1,261.1,326.9,246.3z M291.5,297.8h-70.9    c-8.9,0-16.1-7.2-16.1-16s7.2-16.1,16.1-16.1h70.9c8.9,0,16.1,7.2,16.1,16.1S300.3,297.8,291.5,297.8z" fill="#736357"/><g><path d="M291.5,290.3c-23.4,0-46.7,0-70.1,0c-7.5,0-11.7-7.1-7.8-13.6c2.5-4.1,7.7-3.5,11.7-3.5c14.6,0,29.2,0,43.8,0     c7.2,0,14.3,0,21.5,0C302.1,273.2,303.1,289.8,291.5,290.3c-9.6,0.4-9.7,15.4,0,15c13.2-0.6,23-10.3,23.6-23.5     c0.6-13.2-11.2-23-23.6-23.6c-10.6-0.5-21.4,0-32,0c-12.7,0-25.4,0-38.1,0c-9.3,0-17.8,4.8-22,13.2c-5.7,11.5-0.6,25.8,10.8,31.5     c5.5,2.8,11.5,2.4,17.5,2.4c8.3,0,16.6,0,24.9,0c13,0,26,0,38.9,0C301.1,305.3,301.1,290.3,291.5,290.3z"/><path d="M333.4,242.5c-16.5-21.6-39.7-35-66.6-38.5c-27.5-3.6-55.4,6.4-75.8,24.6c-20.4,18.3-31.4,45.5-31.2,72.7     c0.2,24.7,10.8,48.5,28,66c33,33.7,88.2,37.4,125.8,9.1C355.2,345.1,364.4,284.6,333.4,242.5c-2.4-3.3-6.5-4.9-10.3-2.7     c-3.2,1.9-5.1,7-2.7,10.3c16.2,22,20.9,49.7,12.3,75.8c-6.9,21-23.1,37.9-42.8,47.4c-41.7,20.1-93.5-2.1-109.8-44.8     c-14.3-37.4,1.6-79.8,36-99.7c34.5-20,80.3-10.2,104.3,21.3c2.5,3.2,6.4,4.9,10.3,2.7C333.9,250.9,335.9,245.8,333.4,242.5z"/></g></g><g><path d="M307.5,281.8c0,8.9-7.2,16-16.1,16h-70.9c-8.9,0-16.1-7.2-16.1-16s7.2-16.1,16.1-16.1h70.9    C300.3,265.7,307.5,272.9,307.5,281.8z" fill="#69BD45"/><g><path d="M300,281.8c-0.3,6.5-5.5,8.5-11,8.5c-5.7,0-11.4,0-17.1,0c-14.9,0-29.9,0-44.8,0c-4,0-8,0.5-11.6-1.6     c-7.5-4.5-2.3-15.5,5.3-15.5c11.9,0,23.8,0,35.7,0c9.5,0,19,0,28.5,0C291.4,273.2,299.7,272.9,300,281.8c0.4,9.6,15.4,9.7,15,0     c-0.6-13.2-10.4-23-23.6-23.6c-3.3-0.1-6.5,0-9.8,0c-15.3,0-30.6,0-45.9,0c-13.7,0-29-1.5-36.4,13.2     c-5.7,11.5-0.6,25.8,10.8,31.5c5,2.5,10.3,2.4,15.7,2.4c16.8,0,33.6,0,50.4,0c5,0,10,0,14.9,0c13.3,0,23.3-10.5,23.9-23.5     C315.4,272.1,300.4,272.1,300,281.8z"/></g></g><g><g><path d="M96.4,309.7c-0.3,0-0.6,0-0.9,0c-2,0.1-3.9,0.8-5.3,2.2c-1.4,1.4-2.2,3.3-2.2,5.3c0,4.1,3.4,7.5,7.5,7.5     c0.6,0,1.2,0,1.8,0c4.1,0,7.5-3.4,7.5-7.5c0-2-0.8-3.9-2.2-5.3c-1.4-1.4-3.3-2.1-5.3-2.2C97,309.7,96.7,309.7,96.4,309.7     c-4.1,0-7.5,3.4-7.5,7.5c0,4.1,3.4,7.5,7.5,7.5c0.3,0,0.6,0,0.9,0c0-5,0-10,0-15c-0.6,0-1.2,0-1.8,0c0,5,0,10,0,15     c0.3,0,0.6,0,0.9,0c4.1,0,7.5-3.4,7.5-7.5C103.9,313.1,100.5,309.7,96.4,309.7z"/></g></g><g><path d="M131.9,352.7c0,19.6-15.9,35.5-35.5,35.5c-19.6,0-35.5-15.9-35.5-35.5c0-19.3,15.4-35,34.5-35.5h1.8    C116.5,317.7,131.9,333.4,131.9,352.7z" fill="#6FCCDD"/><g><path d="M124.4,352.7c-0.3,15.5-12.5,27.7-28,28c-15.5,0.3-27.7-12.9-28-28c-0.3-14.9,12.6-28,27.5-28     C111.6,324.7,124.1,337.1,124.4,352.7c0.2,9.7,15.2,9.7,15,0c-0.4-23-19-43-42.5-43c-23.5,0-42,18.4-43.4,41.6     c-1.4,23.8,18.7,43,41.5,44.3c24.2,1.4,43.9-19.5,44.4-42.9C139.6,343,124.6,343,124.4,352.7z"/></g></g><g><g><path d="M415.6,309.7c-0.3,0-0.6,0-0.9,0c-2,0.1-3.9,0.8-5.3,2.2c-1.4,1.4-2.2,3.3-2.2,5.3c0,4.1,3.4,7.5,7.5,7.5     c0.6,0,1.2,0,1.8,0c4.1,0,7.5-3.4,7.5-7.5c0-2-0.8-3.9-2.2-5.3c-1.4-1.4-3.3-2.1-5.3-2.2C416.2,309.7,415.9,309.7,415.6,309.7     c-4.1,0-7.5,3.4-7.5,7.5c0,4.1,3.4,7.5,7.5,7.5c0.3,0,0.6,0,0.9,0c0-5,0-10,0-15c-0.6,0-1.2,0-1.8,0c0,5,0,10,0,15     c0.3,0,0.6,0,0.9,0c4.1,0,7.5-3.4,7.5-7.5C423.1,313.1,419.7,309.7,415.6,309.7z"/></g></g><g><path d="M451.1,352.7c0,19.6-15.9,35.5-35.5,35.5c-19.6,0-35.5-15.9-35.5-35.5c0-19.3,15.4-35,34.5-35.5h1.8    C435.7,317.7,451.1,333.4,451.1,352.7z" fill="#6FCCDD"/><g><path d="M443.6,352.7c-0.3,15.5-12.5,27.7-28,28c-15.5,0.3-27.7-12.9-28-28c-0.3-14.9,12.6-28,27.5-28     C430.8,324.7,443.3,337.1,443.6,352.7c0.2,9.7,15.2,9.7,15,0c-0.4-23-19-43-42.5-43c-23.5,0-42,18.4-43.4,41.6     c-1.4,23.8,18.7,43,41.5,44.3c24.2,1.4,43.9-19.5,44.4-42.9C458.7,343,443.7,343,443.6,352.7z"/></g></g></g></svg>